<mxfile host="app.diagrams.net" modified="2021-08-23T02:15:17.695Z" agent="5.0 (X11)" etag="UZ2F91wAqRxuWYx0xuFD" version="14.9.2" type="github">
  <diagram id="yQgz-zSEGrG0IGbF_BCq" name="Page-1">
    <mxGraphModel dx="1977" dy="1122" grid="1" gridSize="10" guides="1" tooltips="1" connect="1" arrows="1" fold="1" page="1" pageScale="1" pageWidth="850" pageHeight="1100" math="0" shadow="0">
      <root>
        <mxCell id="0" />
        <mxCell id="1" parent="0" />
        <mxCell id="SlDrcngdIBHSzT4xNgj9-7" style="edgeStyle=orthogonalEdgeStyle;rounded=0;orthogonalLoop=1;jettySize=auto;html=1;entryX=0;entryY=0.5;entryDx=0;entryDy=0;entryPerimeter=0;" edge="1" parent="1" source="SlDrcngdIBHSzT4xNgj9-1" target="SlDrcngdIBHSzT4xNgj9-6">
          <mxGeometry relative="1" as="geometry">
            <Array as="points">
              <mxPoint x="190" y="328" />
              <mxPoint x="190" y="449" />
            </Array>
          </mxGeometry>
        </mxCell>
        <mxCell id="SlDrcngdIBHSzT4xNgj9-1" value="&lt;div&gt;Desktop Client&lt;/div&gt;" style="outlineConnect=0;fontColor=#232F3E;gradientColor=none;fillColor=#232F3E;strokeColor=none;dashed=0;verticalLabelPosition=bottom;verticalAlign=top;align=center;html=1;fontSize=12;fontStyle=0;aspect=fixed;pointerEvents=1;shape=mxgraph.aws4.client;" vertex="1" parent="1">
          <mxGeometry x="70" y="290" width="78" height="76" as="geometry" />
        </mxCell>
        <mxCell id="SlDrcngdIBHSzT4xNgj9-8" style="edgeStyle=orthogonalEdgeStyle;rounded=0;orthogonalLoop=1;jettySize=auto;html=1;entryX=0;entryY=0.5;entryDx=0;entryDy=0;entryPerimeter=0;" edge="1" parent="1" source="SlDrcngdIBHSzT4xNgj9-2" target="SlDrcngdIBHSzT4xNgj9-6">
          <mxGeometry relative="1" as="geometry" />
        </mxCell>
        <mxCell id="SlDrcngdIBHSzT4xNgj9-2" value="&lt;div&gt;Mobile Client&lt;/div&gt;" style="outlineConnect=0;fontColor=#232F3E;gradientColor=none;fillColor=#232F3E;strokeColor=none;dashed=0;verticalLabelPosition=bottom;verticalAlign=top;align=center;html=1;fontSize=12;fontStyle=0;aspect=fixed;pointerEvents=1;shape=mxgraph.aws4.mobile_client;" vertex="1" parent="1">
          <mxGeometry x="89" y="410" width="41" height="78" as="geometry" />
        </mxCell>
        <mxCell id="SlDrcngdIBHSzT4xNgj9-9" style="edgeStyle=orthogonalEdgeStyle;rounded=0;orthogonalLoop=1;jettySize=auto;html=1;entryX=0;entryY=0.5;entryDx=0;entryDy=0;entryPerimeter=0;" edge="1" parent="1" source="SlDrcngdIBHSzT4xNgj9-3" target="SlDrcngdIBHSzT4xNgj9-6">
          <mxGeometry relative="1" as="geometry">
            <Array as="points">
              <mxPoint x="190" y="587" />
              <mxPoint x="190" y="449" />
            </Array>
          </mxGeometry>
        </mxCell>
        <mxCell id="SlDrcngdIBHSzT4xNgj9-3" value="&lt;div&gt;Server Client&lt;/div&gt;" style="points=[];aspect=fixed;html=1;align=center;shadow=0;dashed=0;image;image=img/lib/allied_telesis/storage/Datacenter_Server_Half_Rack_ToR.svg;" vertex="1" parent="1">
          <mxGeometry x="65.4" y="530" width="88.2" height="114.6" as="geometry" />
        </mxCell>
        <mxCell id="SlDrcngdIBHSzT4xNgj9-5" value="&lt;div&gt;S3&lt;/div&gt;&lt;div&gt;Connection ID Store&lt;br&gt;&lt;/div&gt;" style="points=[[0,0,0],[0.25,0,0],[0.5,0,0],[0.75,0,0],[1,0,0],[0,1,0],[0.25,1,0],[0.5,1,0],[0.75,1,0],[1,1,0],[0,0.25,0],[0,0.5,0],[0,0.75,0],[1,0.25,0],[1,0.5,0],[1,0.75,0]];outlineConnect=0;fontColor=#232F3E;gradientColor=#60A337;gradientDirection=north;fillColor=#277116;strokeColor=#ffffff;dashed=0;verticalLabelPosition=bottom;verticalAlign=top;align=center;html=1;fontSize=12;fontStyle=0;aspect=fixed;shape=mxgraph.aws4.resourceIcon;resIcon=mxgraph.aws4.s3;" vertex="1" parent="1">
          <mxGeometry x="670" y="410" width="78" height="78" as="geometry" />
        </mxCell>
        <mxCell id="SlDrcngdIBHSzT4xNgj9-12" style="edgeStyle=orthogonalEdgeStyle;rounded=0;orthogonalLoop=1;jettySize=auto;html=1;entryX=0;entryY=0.5;entryDx=0;entryDy=0;entryPerimeter=0;startArrow=classic;startFill=1;" edge="1" parent="1" source="SlDrcngdIBHSzT4xNgj9-6" target="SlDrcngdIBHSzT4xNgj9-11">
          <mxGeometry relative="1" as="geometry" />
        </mxCell>
        <mxCell id="SlDrcngdIBHSzT4xNgj9-6" value="AWS API Gateway" style="points=[[0,0,0],[0.25,0,0],[0.5,0,0],[0.75,0,0],[1,0,0],[0,1,0],[0.25,1,0],[0.5,1,0],[0.75,1,0],[1,1,0],[0,0.25,0],[0,0.5,0],[0,0.75,0],[1,0.25,0],[1,0.5,0],[1,0.75,0]];outlineConnect=0;fontColor=#232F3E;gradientColor=#F34482;gradientDirection=north;fillColor=#BC1356;strokeColor=#ffffff;dashed=0;verticalLabelPosition=bottom;verticalAlign=top;align=center;html=1;fontSize=12;fontStyle=0;aspect=fixed;shape=mxgraph.aws4.resourceIcon;resIcon=mxgraph.aws4.api_gateway;" vertex="1" parent="1">
          <mxGeometry x="300" y="410" width="78" height="78" as="geometry" />
        </mxCell>
        <mxCell id="SlDrcngdIBHSzT4xNgj9-10" value="&lt;div&gt;Websocket&lt;/div&gt;&lt;div&gt;Connection&lt;/div&gt;&lt;div&gt;wss://&lt;br&gt;&lt;/div&gt;" style="text;html=1;align=center;verticalAlign=middle;resizable=0;points=[];autosize=1;fillColor=#ffffff;strokeColor=#000000;" vertex="1" parent="1">
          <mxGeometry x="200" y="424" width="80" height="50" as="geometry" />
        </mxCell>
        <mxCell id="SlDrcngdIBHSzT4xNgj9-13" style="edgeStyle=orthogonalEdgeStyle;rounded=0;orthogonalLoop=1;jettySize=auto;html=1;entryX=0;entryY=0.5;entryDx=0;entryDy=0;entryPerimeter=0;startArrow=classic;startFill=1;" edge="1" parent="1" source="SlDrcngdIBHSzT4xNgj9-11" target="SlDrcngdIBHSzT4xNgj9-5">
          <mxGeometry relative="1" as="geometry" />
        </mxCell>
        <mxCell id="SlDrcngdIBHSzT4xNgj9-11" value="&lt;div&gt;Lambda&lt;/div&gt;&lt;div&gt;Primary&lt;br&gt;&lt;/div&gt;" style="points=[[0,0,0],[0.25,0,0],[0.5,0,0],[0.75,0,0],[1,0,0],[0,1,0],[0.25,1,0],[0.5,1,0],[0.75,1,0],[1,1,0],[0,0.25,0],[0,0.5,0],[0,0.75,0],[1,0.25,0],[1,0.5,0],[1,0.75,0]];outlineConnect=0;fontColor=#232F3E;gradientColor=#F78E04;gradientDirection=north;fillColor=#D05C17;strokeColor=#ffffff;dashed=0;verticalLabelPosition=bottom;verticalAlign=top;align=center;html=1;fontSize=12;fontStyle=0;aspect=fixed;shape=mxgraph.aws4.resourceIcon;resIcon=mxgraph.aws4.lambda;" vertex="1" parent="1">
          <mxGeometry x="470" y="410" width="78" height="78" as="geometry" />
        </mxCell>
        <mxCell id="SlDrcngdIBHSzT4xNgj9-15" style="edgeStyle=orthogonalEdgeStyle;rounded=0;orthogonalLoop=1;jettySize=auto;html=1;startArrow=none;startFill=0;" edge="1" parent="1" target="SlDrcngdIBHSzT4xNgj9-11">
          <mxGeometry relative="1" as="geometry">
            <mxPoint x="509" y="280" as="sourcePoint" />
          </mxGeometry>
        </mxCell>
        <mxCell id="SlDrcngdIBHSzT4xNgj9-14" value="&lt;div&gt;SNS Topic&lt;/div&gt;&lt;div&gt;Invoke Websocket&lt;br&gt;&lt;/div&gt;" style="points=[[0,0,0],[0.25,0,0],[0.5,0,0],[0.75,0,0],[1,0,0],[0,1,0],[0.25,1,0],[0.5,1,0],[0.75,1,0],[1,1,0],[0,0.25,0],[0,0.5,0],[0,0.75,0],[1,0.25,0],[1,0.5,0],[1,0.75,0]];outlineConnect=0;fontColor=#232F3E;gradientColor=#F34482;gradientDirection=north;fillColor=#BC1356;strokeColor=#ffffff;dashed=0;verticalLabelPosition=bottom;verticalAlign=top;align=center;html=1;fontSize=12;fontStyle=0;aspect=fixed;shape=mxgraph.aws4.resourceIcon;resIcon=mxgraph.aws4.sns;" vertex="1" parent="1">
          <mxGeometry x="470" y="160" width="78" height="78" as="geometry" />
        </mxCell>
      </root>
    </mxGraphModel>
  </diagram>
</mxfile>
